<?xml version="1.0" encoding="utf-8"?>
<!-- Generator: Adobe Illustrator 16.0.0, SVG Export Plug-In . SVG Version: 6.00 Build 0)  -->
<!DOCTYPE svg PUBLIC "-//W3C//DTD SVG 1.1//EN" "http://www.w3.org/Graphics/SVG/1.1/DTD/svg11.dtd">
<svg version="1.1" xmlns="http://www.w3.org/2000/svg" xmlns:xlink="http://www.w3.org/1999/xlink" x="0px" y="0px" width="640px"
	 height="640px" viewBox="0 0 640 640" enable-background="new 0 0 640 640" xml:space="preserve">
<g id="图层_2">
	<circle stroke="#000000" cx="317.053" cy="322.053" r="312.947"/>
</g>
<g id="图层_1">
	<g>
		<g>
			<path fill="#FFFFFF" d="M216.445,188.422c1.1,0,2,0.9,2,2v181.156c0,1.1,0.619,2.653,1.375,3.452l39.437,41.627
				c0.756,0.799,0.731,2.081-0.056,2.85l-46.356,45.252c-0.787,0.769-2.072,0.766-2.856-0.006l-75.666-74.537
				c-0.784-0.771-1.425-2.304-1.425-3.403V190.422c0-1.1,0.9-2,2-2H216.445z M431.204,369.438c0.771-0.784,1.401-2.327,1.401-3.427
				V189.25c0-1.1,0.9-2,2-2h82.426c1.1,0,2,0.9,2,2v206.645c0,1.1-0.637,2.636-1.415,3.413L328.259,588.376
				c-0.778,0.777-2.052,0.776-2.829-0.001l-53.715-53.715c-0.778-0.777-0.783-2.057-0.013-2.841L431.204,369.438z"/>
		</g>
		<g>
			<path fill="none" stroke="#000000" stroke-miterlimit="10" d="M216.445,188.422c1.1,0,2,0.9,2,2v181.156
				c0,1.1,0.619,2.653,1.375,3.452l39.437,41.627c0.756,0.799,0.731,2.081-0.056,2.85l-46.356,45.252
				c-0.787,0.769-2.072,0.766-2.856-0.006l-75.666-74.537c-0.784-0.771-1.425-2.304-1.425-3.403V190.422c0-1.1,0.9-2,2-2H216.445z
				 M431.204,369.438c0.771-0.784,1.401-2.327,1.401-3.427V189.25c0-1.1,0.9-2,2-2h82.426c1.1,0,2,0.9,2,2v206.645
				c0,1.1-0.637,2.636-1.415,3.413L328.259,588.376c-0.778,0.777-2.052,0.776-2.829-0.001l-53.715-53.715
				c-0.778-0.777-0.783-2.057-0.013-2.841L431.204,369.438z"/>
		</g>
	</g>
</g>
</svg>
